<?xml version="1.0" standalone="no"?>
<!DOCTYPE svg PUBLIC "-//W3C//DTD SVG 20010904//EN"
 "http://www.w3.org/TR/2001/REC-SVG-20010904/DTD/svg10.dtd">

<svg class="bi bi-newspaper" fill="currentColor" width="100%" height="100%" viewBox="0 0 22 22" xmlns="http://www.w3.org/2000/svg">
  <rect  rx="10%" ry="10%" width="100%" height="100%" fill="#fff1e5"/>
  <g transform="translate(3,3)">
  <path fill-rule="evenodd" d="M0 2A1.5 1.5 0 0 1 1.5.5h11A1.5 1.5 0 0 1 14 2v12a1.5 1.5 0 0 1-1.5 1.5h-11A1.5 1.5 0 0 1 0 14V2zm1.5-.5A.5.5 0 0 0 1 2v12a.5.5 0 0 0 .5.5h11a.5.5 0 0 0 .5-.5V2a.5.5 0 0 0-.5-.5h-11z"/>
  <path fill-rule="evenodd" d="M15.5 3a.5.5 0 0 1 .5.5V14a1.5 1.5 0 0 1-1.5 1.5h-3v-1h3a.5.5 0 0 0 .5-.5V3.5a.5.5 0 0 1 .5-.5z"/>
  <path d="M2 3h10v2H2V3zm0 3h4v3H2V6zm0 4h4v1H2v-1zm0 2h4v1H2v-1zm5-6h2v1H7V6zm3 0h2v1h-2V6zM7 8h2v1H7V8zm3 0h2v1h-2V8zm-3 2h2v1H7v-1zm3 0h2v1h-2v-1zm-3 2h2v1H7v-1zm3 0h2v1h-2v-1z"/>
  </g>
</svg>